/vscmnt/brussel_pixiu_data/_data_brussel/112/vsc11236/PredSimResults/SUBJ04opt3D/worker_06.mot
version=1
nRows=4
nColumns=50
inDegrees=yes
endheader
                time	         pelvis_tilt	         pelvis_list	     pelvis_rotation	           pelvis_tx	           pelvis_ty	           pelvis_tz	       hip_flexion_r	     hip_adduction_r	      hip_rotation_r	        knee_angle_r	       ankle_angle_r	         mtp_angle_r	       hip_flexion_l	     hip_adduction_l	      hip_rotation_l	        knee_angle_l	       ankle_angle_l	         mtp_angle_l	    lumbar_extension	      lumbar_bending	     lumbar_rotation	 ercspn_r/activation	 intobl_r/activation	 extobl_r/activation	    abd_r/activation	    add_r/activation	hamstrings_r/activation	bifemsh_r/activation	glut_max_r/activation	iliopsoas_r/activation	rect_fem_r/activation	  vasti_r/activation	gastroc_r/activation	 soleus_r/activation	tib_ant_r/activation	 ercspn_l/activation	 intobl_l/activation	 extobl_l/activation	    abd_l/activation	    add_l/activation	hamstrings_l/activation	bifemsh_l/activation	glut_max_l/activation	iliopsoas_l/activation	rect_fem_l/activation	  vasti_l/activation	gastroc_l/activation	 soleus_l/activation	tib_ant_l/activation	
          0.60151305	         -2.76765429	         -0.44108558	         -8.54932388	          0.66166436	          0.87736730	          0.00931070	        -13.69391740	         -0.64675536	         -6.60048448	         -8.87717449	         11.02156105	         25.46813086	         30.93863951	         -3.47370031	         -9.25626339	        -11.75943620	          5.04239942	          0.24407958	        -13.43665624	          2.66193735	          8.76880909	          0.03535928	          0.00999999	          0.00999999	          0.04461233	          0.00999999	          0.02661087	          0.20222395	          0.01643319	          0.01200505	          0.01000001	          0.00999999	          0.26988824	          0.27111367	          0.00999999	          0.05668774	          0.22957155	          0.01441210	          0.01699318	          0.31450316	          0.05858580	          0.03520759	          0.01634961	          0.16401485	          0.02973230	          0.04630008	          0.00999999	          0.00999999	          0.35210157	
          0.61354332	         -2.83960594	         -0.40857537	         -8.35669003	          0.67832951	          0.87521312	          0.00892275	        -14.32407408	         -0.81928306	         -7.21922058	         -9.63128277	         10.46262808	         27.05123915	         30.80149028	         -3.27244813	         -9.33313277	        -13.16205870	          4.76052635	          0.23025585	        -12.95143807	          2.10746139	          8.92150931	          0.05585540	          0.00999999	          0.00999999	          0.03716133	          0.01000001	          0.02216642	          0.16844917	          0.01368858	          0.01000001	          0.00999999	          0.00999999	          0.22481238	          0.25623909	          0.00999999	          0.04721994	          0.21462464	          0.01200504	          0.01415503	          0.27163160	          0.06493304	          0.02932734	          0.08557523	          0.13662162	          0.02476651	          0.04088945	          0.01730178	          0.02421119	          0.36142955	
          0.62557358	         -2.89685040	         -0.31388754	         -8.12145177	          0.69531926	          0.87322383	          0.00848222	        -14.84421041	         -1.07054673	         -7.86844048	        -10.64136856	          9.83006694	         28.64306464	         30.52875782	         -3.05429988	         -9.35536887	        -14.44501149	          4.36948450	          0.22741690	        -12.43687361	          1.46753282	          9.03445426	          0.05557223	          0.00999999	          0.00999999	          0.03095476	          0.00999999	          0.01846426	          0.14031533	          0.01140235	          0.02077112	          0.00999999	          0.00999999	          0.18726494	          0.23459570	          0.00999999	          0.04010055	          0.17877873	          0.01000000	          0.05099529	          0.23043404	          0.06531259	          0.02442919	          0.07128273	          0.11380352	          0.02063009	          0.09510677	          0.01441210	          0.02016752	          0.40436928	
          0.63760384	         -2.94053395	         -0.19218459	         -7.83419506	          0.71243392	          0.87158195	          0.00793282	        -15.18228024	         -1.37234701	         -8.55405676	        -12.01049338	          9.06663675	         30.25017963	         30.16591350	         -2.81101247	         -9.47182238	        -15.55421416	          3.85739604	          0.20262432	        -11.92559878	          0.78998061	          9.09973945	          0.07411328	          0.00999999	          0.00999999	          0.02578480	          0.00999999	          0.01538043	          0.11688032	          0.00999999	          0.01730200	          0.00999999	          0.00999999	          0.15598856	          0.20190735	          0.00999999	          0.04441981	          0.14891968	          0.00999999	          0.08203091	          0.22890753	          0.06418597	          0.02034911	          0.05937732	          0.09479642	          0.01718452	          0.17041115	          0.01200503	          0.01679921	          0.43751250	
